<mxfile host="65bd71144e">
    <diagram id="NMmKcLKDBUJkcw3YmbGh" name="Page-1">
        <mxGraphModel dx="885" dy="675" grid="1" gridSize="10" guides="1" tooltips="1" connect="1" arrows="1" fold="1" page="1" pageScale="1" pageWidth="827" pageHeight="1169" math="0" shadow="0">
            <root>
                <mxCell id="0"/>
                <mxCell id="1" parent="0"/>
                <mxCell id="65" style="edgeStyle=none;html=1;exitX=0.5;exitY=0;exitDx=0;exitDy=0;dashed=1;" edge="1" parent="1" source="66">
                    <mxGeometry relative="1" as="geometry">
                        <mxPoint x="471" y="312" as="targetPoint"/>
                    </mxGeometry>
                </mxCell>
                <mxCell id="66" value="OrderDomein" style="swimlane;fontStyle=0;align=center;verticalAlign=top;childLayout=stackLayout;horizontal=1;startSize=26;horizontalStack=0;resizeParent=1;resizeLast=0;collapsible=1;marginBottom=0;rounded=0;shadow=0;strokeWidth=1;" vertex="1" parent="1">
                    <mxGeometry x="391" y="312" width="160" height="70" as="geometry">
                        <mxRectangle x="230" y="260" width="170" height="26" as="alternateBounds"/>
                    </mxGeometry>
                </mxCell>
                <mxCell id="67" value="ç•¥" style="text;align=left;verticalAlign=top;spacingLeft=4;spacingRight=4;overflow=hidden;rotatable=0;points=[[0,0.5],[1,0.5]];portConstraint=eastwest;" vertex="1" parent="66">
                    <mxGeometry y="26" width="160" height="26" as="geometry"/>
                </mxCell>
                <mxCell id="68" value="" style="line;html=1;strokeWidth=1;align=left;verticalAlign=middle;spacingTop=-1;spacingLeft=3;spacingRight=3;rotatable=0;labelPosition=right;points=[];portConstraint=eastwest;" vertex="1" parent="66">
                    <mxGeometry y="52" width="160" height="8" as="geometry"/>
                </mxCell>
                <mxCell id="69" value="OrderRepository" style="swimlane;fontStyle=0;align=center;verticalAlign=top;childLayout=stackLayout;horizontal=1;startSize=40;horizontalStack=0;resizeParent=1;resizeLast=0;collapsible=1;marginBottom=0;rounded=0;shadow=0;strokeWidth=1;" vertex="1" parent="1">
                    <mxGeometry x="610" y="183" width="200" height="100" as="geometry">
                        <mxRectangle x="550" y="140" width="160" height="26" as="alternateBounds"/>
                    </mxGeometry>
                </mxCell>
                <mxCell id="70" value="" style="line;html=1;strokeWidth=1;align=left;verticalAlign=middle;spacingTop=-1;spacingLeft=3;spacingRight=3;rotatable=0;labelPosition=right;points=[];portConstraint=eastwest;" vertex="1" parent="69">
                    <mxGeometry y="40" width="200" height="24" as="geometry"/>
                </mxCell>
                <mxCell id="71" value="load(id : Integer):Order" style="text;align=left;verticalAlign=top;spacingLeft=4;spacingRight=4;overflow=hidden;rotatable=0;points=[[0,0.5],[1,0.5]];portConstraint=eastwest;" vertex="1" parent="69">
                    <mxGeometry y="64" width="200" height="26" as="geometry"/>
                </mxCell>
                <mxCell id="72" value="" style="endArrow=open;shadow=0;strokeWidth=1;rounded=0;endFill=1;edgeStyle=elbowEdgeStyle;elbow=vertical;dashed=1;" edge="1" parent="1" target="69">
                    <mxGeometry x="0.5" y="41" relative="1" as="geometry">
                        <mxPoint x="547" y="223" as="sourcePoint"/>
                        <mxPoint x="573" y="175" as="targetPoint"/>
                        <mxPoint x="-40" y="32" as="offset"/>
                    </mxGeometry>
                </mxCell>
                <mxCell id="73" value="1" style="resizable=0;align=right;verticalAlign=bottom;labelBackgroundColor=none;fontSize=12;" connectable="0" vertex="1" parent="72">
                    <mxGeometry x="1" relative="1" as="geometry">
                        <mxPoint x="-7" y="4" as="offset"/>
                    </mxGeometry>
                </mxCell>
                <mxCell id="77" value="" style="endArrow=open;shadow=0;strokeWidth=1;rounded=0;endFill=1;edgeStyle=elbowEdgeStyle;elbow=vertical;dashed=1;exitX=0.5;exitY=1;exitDx=0;exitDy=0;entryX=0.5;entryY=0;entryDx=0;entryDy=0;" edge="1" parent="1" source="82" target="66">
                    <mxGeometry x="0.5" y="41" relative="1" as="geometry">
                        <mxPoint x="468" y="223" as="sourcePoint"/>
                        <mxPoint x="470" y="413" as="targetPoint"/>
                        <mxPoint x="-40" y="32" as="offset"/>
                        <Array as="points">
                            <mxPoint x="471" y="303"/>
                            <mxPoint x="420" y="323"/>
                            <mxPoint x="470" y="423"/>
                        </Array>
                    </mxGeometry>
                </mxCell>
                <mxCell id="78" value="1" style="resizable=0;align=right;verticalAlign=bottom;labelBackgroundColor=none;fontSize=12;" connectable="0" vertex="1" parent="77">
                    <mxGeometry x="1" relative="1" as="geometry">
                        <mxPoint x="-7" y="4" as="offset"/>
                    </mxGeometry>
                </mxCell>
                <mxCell id="82" value="ShowOrderService" style="swimlane;fontStyle=0;align=center;verticalAlign=top;childLayout=stackLayout;horizontal=1;startSize=40;horizontalStack=0;resizeParent=1;resizeLast=0;collapsible=1;marginBottom=0;rounded=0;shadow=0;strokeWidth=1;" vertex="1" parent="1">
                    <mxGeometry x="360" y="173" width="191" height="100" as="geometry">
                        <mxRectangle x="550" y="140" width="160" height="26" as="alternateBounds"/>
                    </mxGeometry>
                </mxCell>
                <mxCell id="83" value="" style="line;html=1;strokeWidth=1;align=left;verticalAlign=middle;spacingTop=-1;spacingLeft=3;spacingRight=3;rotatable=0;labelPosition=right;points=[];portConstraint=eastwest;" vertex="1" parent="82">
                    <mxGeometry y="40" width="191" height="24" as="geometry"/>
                </mxCell>
                <mxCell id="84" value="showOrder(orderId : Integer):Order" style="text;align=left;verticalAlign=top;spacingLeft=4;spacingRight=4;overflow=hidden;rotatable=0;points=[[0,0.5],[1,0.5]];portConstraint=eastwest;" vertex="1" parent="82">
                    <mxGeometry y="64" width="191" height="26" as="geometry"/>
                </mxCell>
                <mxCell id="85" value="ShowOrderContorller" style="swimlane;fontStyle=0;align=center;verticalAlign=top;childLayout=stackLayout;horizontal=1;startSize=40;horizontalStack=0;resizeParent=1;resizeLast=0;collapsible=1;marginBottom=0;rounded=0;shadow=0;strokeWidth=1;" vertex="1" parent="1">
                    <mxGeometry x="90" y="173" width="205" height="100" as="geometry">
                        <mxRectangle x="550" y="140" width="160" height="26" as="alternateBounds"/>
                    </mxGeometry>
                </mxCell>
                <mxCell id="86" value="" style="line;html=1;strokeWidth=1;align=left;verticalAlign=middle;spacingTop=-1;spacingLeft=3;spacingRight=3;rotatable=0;labelPosition=right;points=[];portConstraint=eastwest;" vertex="1" parent="85">
                    <mxGeometry y="40" width="205" height="24" as="geometry"/>
                </mxCell>
                <mxCell id="87" value="showOrder(orderId : Integer):String" style="text;align=left;verticalAlign=top;spacingLeft=4;spacingRight=4;overflow=hidden;rotatable=0;points=[[0,0.5],[1,0.5]];portConstraint=eastwest;" vertex="1" parent="85">
                    <mxGeometry y="64" width="205" height="26" as="geometry"/>
                </mxCell>
                <mxCell id="88" value="" style="endArrow=open;shadow=0;strokeWidth=1;rounded=0;endFill=1;edgeStyle=elbowEdgeStyle;elbow=vertical;dashed=1;" edge="1" parent="1">
                    <mxGeometry x="0.5" y="41" relative="1" as="geometry">
                        <mxPoint x="298" y="224" as="sourcePoint"/>
                        <mxPoint x="361" y="223.52941176470586" as="targetPoint"/>
                        <mxPoint x="-40" y="32" as="offset"/>
                    </mxGeometry>
                </mxCell>
                <mxCell id="89" value="1" style="resizable=0;align=right;verticalAlign=bottom;labelBackgroundColor=none;fontSize=12;" connectable="0" vertex="1" parent="88">
                    <mxGeometry x="1" relative="1" as="geometry">
                        <mxPoint x="-7" y="4" as="offset"/>
                    </mxGeometry>
                </mxCell>
                <mxCell id="90" value="" style="endArrow=open;shadow=0;strokeWidth=1;rounded=0;endFill=1;elbow=vertical;dashed=1;exitX=0.5;exitY=1;exitDx=0;exitDy=0;" edge="1" parent="1" source="85">
                    <mxGeometry x="0.5" y="41" relative="1" as="geometry">
                        <mxPoint x="328" y="353.71" as="sourcePoint"/>
                        <mxPoint x="391" y="353.2394117647059" as="targetPoint"/>
                        <mxPoint x="-40" y="32" as="offset"/>
                    </mxGeometry>
                </mxCell>
                <mxCell id="91" value="" style="endArrow=open;shadow=0;strokeWidth=1;rounded=0;endFill=1;elbow=vertical;dashed=1;exitX=0.5;exitY=1;exitDx=0;exitDy=0;entryX=1;entryY=0.5;entryDx=0;entryDy=0;" edge="1" parent="1" source="69" target="67">
                    <mxGeometry x="0.5" y="41" relative="1" as="geometry">
                        <mxPoint x="580" y="312" as="sourcePoint"/>
                        <mxPoint x="768.5" y="392.2394117647059" as="targetPoint"/>
                        <mxPoint x="-40" y="32" as="offset"/>
                    </mxGeometry>
                </mxCell>
                <mxCell id="95" value="order_confirm.html" style="swimlane;fontStyle=0;align=center;verticalAlign=top;childLayout=stackLayout;horizontal=1;startSize=26;horizontalStack=0;resizeParent=1;resizeLast=0;collapsible=1;marginBottom=0;rounded=0;shadow=0;strokeWidth=1;" vertex="1" parent="1">
                    <mxGeometry y="322" width="110" height="70" as="geometry">
                        <mxRectangle x="230" y="260" width="170" height="26" as="alternateBounds"/>
                    </mxGeometry>
                </mxCell>
                <mxCell id="96" value="" style="line;html=1;strokeWidth=1;align=left;verticalAlign=middle;spacingTop=-1;spacingLeft=3;spacingRight=3;rotatable=0;labelPosition=right;points=[];portConstraint=eastwest;" vertex="1" parent="95">
                    <mxGeometry y="26" width="110" height="8" as="geometry"/>
                </mxCell>
                <mxCell id="97" value="" style="endArrow=open;shadow=0;strokeWidth=1;rounded=0;endFill=1;elbow=vertical;dashed=1;" edge="1" parent="1" target="95">
                    <mxGeometry x="0.5" y="41" relative="1" as="geometry">
                        <mxPoint x="100" y="270" as="sourcePoint"/>
                        <mxPoint x="421" y="363.2394117647059" as="targetPoint"/>
                        <mxPoint x="-40" y="32" as="offset"/>
                    </mxGeometry>
                </mxCell>
                <mxCell id="98" value="cart_list.html" style="swimlane;fontStyle=0;align=center;verticalAlign=top;childLayout=stackLayout;horizontal=1;startSize=26;horizontalStack=0;resizeParent=1;resizeLast=0;collapsible=1;marginBottom=0;rounded=0;shadow=0;strokeWidth=1;" vertex="1" parent="1">
                    <mxGeometry y="70" width="110" height="80" as="geometry">
                        <mxRectangle x="230" y="260" width="170" height="26" as="alternateBounds"/>
                    </mxGeometry>
                </mxCell>
                <mxCell id="99" value="" style="line;html=1;strokeWidth=1;align=left;verticalAlign=middle;spacingTop=-1;spacingLeft=3;spacingRight=3;rotatable=0;labelPosition=right;points=[];portConstraint=eastwest;" vertex="1" parent="98">
                    <mxGeometry y="26" width="110" height="8" as="geometry"/>
                </mxCell>
                <mxCell id="100" value="" style="endArrow=open;shadow=0;strokeWidth=1;rounded=0;endFill=1;elbow=vertical;dashed=1;entryX=0;entryY=0;entryDx=0;entryDy=0;" edge="1" parent="1" target="85">
                    <mxGeometry x="0.5" y="41" relative="1" as="geometry">
                        <mxPoint x="47" y="154" as="sourcePoint"/>
                        <mxPoint x="20.103448275862092" y="206" as="targetPoint"/>
                        <mxPoint x="-40" y="32" as="offset"/>
                    </mxGeometry>
                </mxCell>
            </root>
        </mxGraphModel>
    </diagram>
</mxfile>